<mxfile host="app.diagrams.net" modified="2022-08-23T07:26:02.317Z" agent="5.0 (Windows NT 10.0; Win64; x64) AppleWebKit/537.36 (KHTML, like Gecko) Chrome/104.0.0.0 Safari/537.36" etag="U3oUFvO7frHaIc_FoCgs" version="20.2.6" type="github">
  <diagram id="XPQXRGtO2yzyQCLPdted" name="페이지-1">
    <mxGraphModel dx="825" dy="865" grid="1" gridSize="10" guides="1" tooltips="1" connect="1" arrows="1" fold="1" page="1" pageScale="1" pageWidth="2000" pageHeight="2000" math="0" shadow="0">
      <root>
        <mxCell id="0" />
        <mxCell id="1" parent="0" />
        <mxCell id="QQgEo8uDe4tmEbUrEAUi-2" value="Schemas" style="rounded=1;whiteSpace=wrap;html=1;" parent="1" vertex="1">
          <mxGeometry x="60" y="310" width="220" height="60" as="geometry" />
        </mxCell>
        <mxCell id="QQgEo8uDe4tmEbUrEAUi-3" value="Models" style="rounded=1;whiteSpace=wrap;html=1;" parent="1" vertex="1">
          <mxGeometry x="420" y="310" width="220" height="60" as="geometry" />
        </mxCell>
        <mxCell id="QQgEo8uDe4tmEbUrEAUi-4" value="문서 형식 설정&lt;br&gt;" style="rounded=0;whiteSpace=wrap;html=1;" parent="1" vertex="1">
          <mxGeometry x="60" y="390" width="220" height="120" as="geometry" />
        </mxCell>
        <mxCell id="QQgEo8uDe4tmEbUrEAUi-5" value="기본적인 CRUD 함수 정리" style="rounded=0;whiteSpace=wrap;html=1;" parent="1" vertex="1">
          <mxGeometry x="420" y="390" width="220" height="120" as="geometry" />
        </mxCell>
        <mxCell id="QQgEo8uDe4tmEbUrEAUi-6" value="" style="endArrow=classic;html=1;rounded=0;" parent="1" edge="1">
          <mxGeometry width="50" height="50" relative="1" as="geometry">
            <mxPoint x="290" y="340" as="sourcePoint" />
            <mxPoint x="410" y="340" as="targetPoint" />
          </mxGeometry>
        </mxCell>
        <mxCell id="QQgEo8uDe4tmEbUrEAUi-8" value="index.js" style="rounded=1;whiteSpace=wrap;html=1;" parent="1" vertex="1">
          <mxGeometry x="60" y="30" width="220" height="60" as="geometry" />
        </mxCell>
        <mxCell id="QQgEo8uDe4tmEbUrEAUi-9" value="DB연결" style="rounded=0;whiteSpace=wrap;html=1;" parent="1" vertex="1">
          <mxGeometry x="60" y="100" width="220" height="120" as="geometry" />
        </mxCell>
        <mxCell id="QQgEo8uDe4tmEbUrEAUi-10" value="Service" style="rounded=1;whiteSpace=wrap;html=1;" parent="1" vertex="1">
          <mxGeometry x="60" y="580" width="220" height="60" as="geometry" />
        </mxCell>
        <mxCell id="QQgEo8uDe4tmEbUrEAUi-11" value="실제 사용하는 함수 정리" style="rounded=0;whiteSpace=wrap;html=1;" parent="1" vertex="1">
          <mxGeometry x="60" y="660" width="220" height="120" as="geometry" />
        </mxCell>
        <mxCell id="QQgEo8uDe4tmEbUrEAUi-13" value="Router" style="rounded=1;whiteSpace=wrap;html=1;" parent="1" vertex="1">
          <mxGeometry x="420" y="580" width="220" height="60" as="geometry" />
        </mxCell>
        <mxCell id="QQgEo8uDe4tmEbUrEAUi-14" value="정리한 함수들을 가져다 사용!" style="rounded=0;whiteSpace=wrap;html=1;" parent="1" vertex="1">
          <mxGeometry x="420" y="660" width="220" height="120" as="geometry" />
        </mxCell>
      </root>
    </mxGraphModel>
  </diagram>
</mxfile>
